<?xml version="1.0" encoding="UTF-8"?>
<svg id="_레이어_2" data-name="레이어 2" xmlns="http://www.w3.org/2000/svg" viewBox="0 0 141.73 141.73">
  <defs>
    <style>
      .cls-1 {
        fill: #4bb5d4;
      }

      .cls-1, .cls-2, .cls-3, .cls-4, .cls-5, .cls-6, .cls-7 {
        stroke-width: 0px;
      }

      .cls-2 {
        fill: #8f9bce;
      }

      .cls-3 {
        fill: #f2a9a9;
      }

      .cls-4 {
        fill: #5470ad;
      }

      .cls-5 {
        fill: #223454;
      }

      .cls-6 {
        fill: #283147;
      }

      .cls-7 {
        fill: #fff;
      }
    </style>
  </defs>
  <g id="_레이어_1-2" data-name="레이어 1">
    <circle class="cls-2" cx="70.87" cy="70.87" r="70.87"/>
    <g>
      <ellipse class="cls-3" cx="40" cy="78.99" rx="8.73" ry="6.49"/>
      <ellipse class="cls-3" cx="100.26" cy="78.99" rx="8.73" ry="6.49"/>
      <ellipse class="cls-6" cx="52.19" cy="72.8" rx="5.74" ry="9.98"/>
      <ellipse class="cls-6" cx="88.62" cy="72.8" rx="5.74" ry="9.98"/>
      <path class="cls-1" d="M56.32,78.24c-.22.03-.44.1-.65.17-.2.06-.4.12-.61.16-.34.07-.69.06-1.03.02-.22-.03-.44-.07-.66-.07-.19,0-.37.03-.55.08-.33.1-.64.26-.97.34-.39.09-.79.04-1.17-.08-.39-.12-.77-.3-1.17-.38-.34-.07-.67-.03-.99.06-.33.09-.65.23-.93.42,0,0,0,0,0,0,1.04,2.55,2.75,4.22,4.69,4.22,2.1,0,3.93-1.95,4.93-4.87-.28-.08-.57-.11-.87-.07Z"/>
      <path class="cls-1" d="M92.68,77.84c-.22.03-.44.1-.65.17-.2.06-.4.12-.61.16-.34.07-.69.06-1.03.02-.22-.03-.44-.07-.66-.07-.19,0-.37.03-.55.08-.33.1-.64.26-.97.34-.39.09-.79.04-1.17-.08-.39-.12-.77-.3-1.17-.38-.34-.07-.67-.03-.99.06-.33.09-.65.23-.93.42,0,0,0,0,0,0,1.04,2.55,2.75,4.22,4.69,4.22,2.1,0,3.93-1.95,4.93-4.87-.28-.08-.57-.11-.87-.07Z"/>
      <path class="cls-4" d="M84.72,51.49c-1.05-.4-2,.77-1.41,1.71,2.05,3.27,6.17,8.11,12.07,6.8,6.71-1.49-4.94-6.35-10.66-8.51Z"/>
      <path class="cls-4" d="M57.97,51.91c1.07-.32,1.94.91,1.28,1.81-2.29,3.11-6.76,7.63-12.54,5.89-6.58-1.98,5.4-5.97,11.26-7.7Z"/>
      <path class="cls-5" d="M63.73,86.17c6.03-6.28,11.71-3.53,14.51.24,1.48,1.99-1.26,2.55-2.49,1.83-2.09-1.22-3.68-2.1-7.12-.67-7.05,2.92-5.38-.57-5.03-1.22.03-.06.08-.12.13-.17Z"/>
      <ellipse class="cls-7" cx="50.94" cy="70.3" rx="1" ry="2.5"/>
      <ellipse class="cls-7" cx="86.38" cy="70.3" rx="1" ry="2.5"/>
      <path class="cls-1" d="M49.78,80.34c-3.1.5-6.83,1.17-7.22,4.64-.22,1.93.2,3.15,2.32,3.61,5.35,1.18,2.26-5.46,4.03-7.46"/>
    </g>
    <circle class="cls-7" cx="90.4" cy="73.23" r="1"/>
    <circle class="cls-7" cx="54.4" cy="74.23" r="1"/>
  </g>
</svg>