<svg width="33" height="23" viewBox="0 0 33 23" fill="none" xmlns="http://www.w3.org/2000/svg">
<path d="M25.5002 2.3V20.7C25.5002 21.31 25.2895 21.895 24.9145 22.3263C24.5394 22.7577 24.0307 23 23.5002 23H21.5002C20.9698 23 20.4611 22.7577 20.086 22.3263C19.711 21.895 19.5002 21.31 19.5002 20.7V12.65H13.5002V20.7C13.5002 21.31 13.2895 21.895 12.9145 22.3263C12.5394 22.7577 12.0307 23 11.5002 23H9.50024C8.96981 23 8.4611 22.7577 8.08603 22.3263C7.71096 21.895 7.50024 21.31 7.50024 20.7V2.3C7.50024 1.69 7.71096 1.10499 8.08603 0.673654C8.4611 0.242321 8.96981 0 9.50024 0H11.5002C12.0307 0 12.5394 0.242321 12.9145 0.673654C13.2895 1.10499 13.5002 1.69 13.5002 2.3V10.35H19.5002V2.3C19.5002 1.69 19.711 1.10499 20.086 0.673654C20.4611 0.242321 20.9698 0 21.5002 0H23.5002C24.0307 0 24.5394 0.242321 24.9145 0.673654C25.2895 1.10499 25.5002 1.69 25.5002 2.3ZM5.00024 3.45H4.50024C3.96981 3.45 3.4611 3.69232 3.08603 4.12365C2.71096 4.55499 2.50024 5.14 2.50024 5.75V10.35H1.53399C1.27558 10.3456 1.0253 10.4539 0.833511 10.6531C0.641721 10.8524 0.522648 11.1277 0.500244 11.4238C0.491162 11.5811 0.510301 11.7389 0.556473 11.8873C0.602645 12.0358 0.674864 12.1717 0.768643 12.2867C0.862423 12.4017 0.97576 12.4933 1.10162 12.5558C1.22747 12.6183 1.36316 12.6503 1.50024 12.65H2.50024V17.25C2.50024 17.86 2.71096 18.445 3.08603 18.8763C3.4611 19.3077 3.96981 19.55 4.50024 19.55H5.00024C5.13285 19.55 5.26003 19.4894 5.3538 19.3816C5.44757 19.2738 5.50024 19.1275 5.50024 18.975V4.025C5.50024 3.8725 5.44757 3.72625 5.3538 3.61841C5.26003 3.51058 5.13285 3.45 5.00024 3.45ZM32.5002 11.4238C32.4779 11.1282 32.3592 10.8533 32.1679 10.6541C31.9766 10.455 31.727 10.3463 31.469 10.35H30.5002V5.75C30.5002 5.14 30.2895 4.55499 29.9145 4.12365C29.5394 3.69232 29.0307 3.45 28.5002 3.45H28.0002C27.8676 3.45 27.7405 3.51058 27.6467 3.61841C27.5529 3.72625 27.5002 3.8725 27.5002 4.025V18.975C27.5002 19.1275 27.5529 19.2738 27.6467 19.3816C27.7405 19.4894 27.8676 19.55 28.0002 19.55H28.5002C29.0307 19.55 29.5394 19.3077 29.9145 18.8763C30.2895 18.445 30.5002 17.86 30.5002 17.25V12.65H31.5002C31.6373 12.6503 31.773 12.6183 31.8989 12.5558C32.0247 12.4933 32.1381 12.4017 32.2318 12.2867C32.3256 12.1717 32.3978 12.0358 32.444 11.8873C32.4902 11.7389 32.5093 11.5811 32.5002 11.4238Z" fill="#495EF6"/>
</svg>
