<svg width="23" height="23" viewBox="0 0 23 23" fill="none" xmlns="http://www.w3.org/2000/svg">
<path d="M22.5 3.28561V1.6428C22.5 1.2071 22.3217 0.789251 22.0043 0.481166C21.687 0.17308 21.2565 0 20.8077 0H2.19231C1.74348 0 1.31303 0.17308 0.995665 0.481166C0.678296 0.789251 0.5 1.2071 0.5 1.6428V3.28561C0.5 3.7213 0.678296 4.13916 0.995665 4.44724C1.31303 4.75533 1.74348 4.92841 2.19231 4.92841V14.7852H1.34615C1.12174 14.7852 0.906517 14.8718 0.747833 15.0258C0.589148 15.1798 0.5 15.3888 0.5 15.6066C0.5 15.8245 0.589148 16.0334 0.747833 16.1874C0.906517 16.3415 1.12174 16.428 1.34615 16.428H10.6538V18.2125C10.0893 18.4063 9.61345 18.7876 9.31047 19.289C9.00748 19.7903 8.89684 20.3796 8.9981 20.9525C9.09936 21.5254 9.406 22.0452 9.86383 22.4198C10.3217 22.7945 10.9012 23 11.5 23C12.0988 23 12.6783 22.7945 13.1362 22.4198C13.594 22.0452 13.9006 21.5254 14.0019 20.9525C14.1032 20.3796 13.9925 19.7903 13.6895 19.289C13.3865 18.7876 12.9107 18.4063 12.3462 18.2125V16.428H21.6538C21.8783 16.428 22.0935 16.3415 22.2522 16.1874C22.4109 16.0334 22.5 15.8245 22.5 15.6066C22.5 15.3888 22.4109 15.1798 22.2522 15.0258C22.0935 14.8718 21.8783 14.7852 21.6538 14.7852H20.8077V4.92841C21.2565 4.92841 21.687 4.75533 22.0043 4.44724C22.3217 4.13916 22.5 3.7213 22.5 3.28561ZM8.96154 11.4996C8.96154 11.7175 8.87239 11.9264 8.71371 12.0804C8.55502 12.2345 8.3398 12.321 8.11538 12.321C7.89097 12.321 7.67575 12.2345 7.51706 12.0804C7.35838 11.9264 7.26923 11.7175 7.26923 11.4996V9.85682C7.26923 9.63897 7.35838 9.43004 7.51706 9.276C7.67575 9.12195 7.89097 9.03541 8.11538 9.03541C8.3398 9.03541 8.55502 9.12195 8.71371 9.276C8.87239 9.43004 8.96154 9.63897 8.96154 9.85682V11.4996ZM11.5 21.3564C11.3326 21.3564 11.1691 21.3083 11.0299 21.218C10.8908 21.1277 10.7823 20.9995 10.7183 20.8494C10.6542 20.6993 10.6375 20.5341 10.6701 20.3748C10.7028 20.2155 10.7833 20.0691 10.9017 19.9542C11.02 19.8393 11.1708 19.7611 11.3349 19.7294C11.4991 19.6977 11.6692 19.714 11.8238 19.7762C11.9784 19.8383 12.1106 19.9436 12.2036 20.0787C12.2965 20.2138 12.3462 20.3726 12.3462 20.535C12.3462 20.7529 12.257 20.9618 12.0983 21.1159C11.9396 21.2699 11.7244 21.3564 11.5 21.3564ZM12.3462 11.4996C12.3462 11.7175 12.257 11.9264 12.0983 12.0804C11.9396 12.2345 11.7244 12.321 11.5 12.321C11.2756 12.321 11.0604 12.2345 10.9017 12.0804C10.743 11.9264 10.6538 11.7175 10.6538 11.4996V9.03541C10.6538 8.81757 10.743 8.60864 10.9017 8.4546C11.0604 8.30055 11.2756 8.21401 11.5 8.21401C11.7244 8.21401 11.9396 8.30055 12.0983 8.4546C12.257 8.60864 12.3462 8.81757 12.3462 9.03541V11.4996ZM15.7308 11.4996C15.7308 11.7175 15.6416 11.9264 15.4829 12.0804C15.3243 12.2345 15.109 12.321 14.8846 12.321C14.6602 12.321 14.445 12.2345 14.2863 12.0804C14.1276 11.9264 14.0385 11.7175 14.0385 11.4996V8.21401C14.0385 7.99616 14.1276 7.78724 14.2863 7.6332C14.445 7.47915 14.6602 7.39261 14.8846 7.39261C15.109 7.39261 15.3243 7.47915 15.4829 7.6332C15.6416 7.78724 15.7308 7.99616 15.7308 8.21401V11.4996ZM2.19231 3.28561V1.6428H20.8077V3.28561H2.19231Z" fill="#B2BAC2"/>
</svg>
