<?xml version="1.0" encoding="UTF-8"?>
<svg id="_레이어_1" data-name="레이어 1" xmlns="http://www.w3.org/2000/svg" xmlns:xlink="http://www.w3.org/1999/xlink" viewBox="0 0 323.05 599.44">
  <defs>
    <style>
      .cls-1 {
        fill: #313543;
      }

      .cls-1, .cls-2, .cls-3, .cls-4, .cls-5, .cls-6, .cls-7, .cls-8, .cls-9, .cls-10, .cls-11, .cls-12, .cls-13, .cls-14, .cls-15, .cls-16, .cls-17 {
        stroke-width: 0px;
      }

      .cls-18 {
        clip-path: url(#clippath);
      }

      .cls-2 {
        fill: none;
      }

      .cls-3, .cls-7, .cls-9, .cls-16 {
        fill: #231815;
      }

      .cls-3, .cls-8 {
        opacity: .3;
      }

      .cls-4 {
        fill: #4bb5d4;
      }

      .cls-5 {
        fill: #8f9bce;
      }

      .cls-6 {
        fill: #2a2c35;
      }

      .cls-7 {
        opacity: .4;
      }

      .cls-8, .cls-15 {
        fill: #251506;
      }

      .cls-9 {
        opacity: .35;
      }

      .cls-10 {
        fill: #f2a9a9;
      }

      .cls-10, .cls-19, .cls-16 {
        opacity: .5;
      }

      .cls-11 {
        fill: #5470ad;
      }

      .cls-12 {
        fill: #223454;
      }

      .cls-13 {
        fill: #283147;
      }

      .cls-14 {
        fill: #fff;
      }

      .cls-15 {
        opacity: .2;
      }

      .cls-17 {
        fill: #717eb1;
      }
    </style>
    <clipPath id="clippath">
      <path class="cls-2" d="M172.37,580.89l75.63-39.26c4.29-2.07,7.01-6.41,7.01-11.17v-96.91c0-2.33-4.82-9.79-1.89-6.58l-30.35-48.48c-.85-1.36-2.61-19.42-2.88-21-6.27-37-1.89-98.46,1.26-138.86.5-6.41,2.62-13.03,5.05-18.94l20.91-31.98c.24-.35.44-.72.65-1.09,5.99-10.67,6.86-24.46,6.86-24.51l.39-81.28c0-9.69-5.55-18.52-14.29-22.71L171.56,4.9l-7.83-3.2c-5.84-2.39-12.4-2.26-18.14.35l-8.54,3.88-70.2,32.19c-8.73,4.19-14.29,13.02-14.29,22.71v81.9c0,8.72,2.63,17.24,7.54,24.45l22,32.27c3.62,5.31,5.64,11.54,5.81,17.97,1.12,40.68,4.86,119.54-1.39,156.55-.27,1.6-.85,3.13-1.72,4.5l-30.35,48.48c-1.23,1.97-1.89,4.25-1.89,6.58v96.91c0,4.76,2.72,9.1,7.01,11.17l75.63,36.87s13,7.63,20.18,7.63,16.99-5.24,16.99-5.24Z"/>
    </clipPath>
  </defs>
  <g class="cls-19">
    <path class="cls-5" d="M172.14,580.96l75.63-39.26c4.29-2.07,7.01-6.41,7.01-11.17v-91.65c0-5.77-1.62-11.42-4.68-16.31l-25.49-40.72c-2.39-3.82-3.92-8.11-4.46-12.58-5.07-42.16-2.06-100.8-.86-146.35.26-9.95,3.38-19.61,8.99-27.83l15.78-23.16c6.99-10.25,10.72-22.37,10.72-34.77v-64.72c0-16.74-9.6-31.99-24.68-39.24l-58.28-27.99c-.33-.16-.66-.31-1-.44h0c-10.51-4.3-22.32-4.07-32.66.63l-1.34.61-70.2,32.19c-8.73,4.19-14.29,13.02-14.29,22.71v76.25c0,12.4,3.74,24.52,10.72,34.77l15.78,23.16c5.61,8.22,8.73,17.88,8.99,27.83,1.2,45.56,4.21,104.2-.86,146.35-.54,4.47-2.07,8.77-4.46,12.58l-25.49,40.72c-3.06,4.89-4.68,10.54-4.68,16.31v91.65c0,4.76,2.72,9.1,7.01,11.17l75.07,36.6c.34.17.67.34,1,.53,2.34,1.33,13.35,7.38,19.73,7.38,7.17,0,16.99-5.24,16.99-5.24Z"/>
    <g class="cls-18">
      <path class="cls-17" d="M262.41,139.52c-3.45-3.08-5.19-8.65-8.65.86-4.65,12.78-21.48,36.55-42.82,48.8-20.7,11.88-51.37,8.13-66.81,8.78-33.36,1.4,23.22,10.83,57.4,10.37,7.13-.1,10.82,1.73,11.58,9.03,2.66,25.62,8.01,80.57,7.92,93.96-.12,17.7,38.02-168.45,38.02-168.45l3.37-3.36Z"/>
      <path class="cls-17" d="M323.05,489.57c-.43-4.67-2.56-3.55-7.06-2.23-13.12,3.85,3.71,20.88-20.58,14.54-23.56-6.15-30.63-75.11-37.71-86.75-8.16-13.41-3.13,65.49-4.34,78.51-3.7,39.85-42.36,64.13-42.36,64.13,0,0-32.54,21.88-35.29,27.95-14.68,32.46,144.55-94.4,144.55-94.4l2.78-1.75Z"/>
      <path class="cls-17" d="M.08,514.64c-.55-4.31,1.65-3.51,6.09-2.76,12.92,2.19.8,19.45,22,11.19,20.57-8.01,13.13-71.73,17.32-83.08,4.83-13.08,16.18,59.51,19.94,71.28,11.51,36.03,52.22,54.28,52.22,54.28,0,0,34.56,16.68,38.34,21.95,20.17,28.16-152.98-71.55-152.98-71.55l-2.93-1.32Z"/>
    </g>
    <ellipse class="cls-10" cx="133.7" cy="125.25" rx="13.95" ry="10.36"/>
    <ellipse class="cls-10" cx="229.94" cy="125.25" rx="13.95" ry="10.36"/>
    <ellipse class="cls-13" cx="153.17" cy="115.36" rx="9.17" ry="15.94"/>
    <ellipse class="cls-13" cx="211.35" cy="115.36" rx="9.17" ry="15.94"/>
    <path class="cls-4" d="M159.77,124.05c-.36.05-.7.16-1.04.26-.32.1-.65.19-.98.25-.55.1-1.1.09-1.65.03-.35-.04-.7-.12-1.05-.12-.3,0-.59.05-.88.13-.53.16-1.02.42-1.56.55-.63.15-1.26.06-1.87-.13-.63-.19-1.23-.47-1.87-.6-.54-.11-1.07-.06-1.59.09-.52.14-1.03.37-1.48.68,0,0,0,0,0,0,1.66,4.08,4.39,6.74,7.48,6.74,3.35,0,6.27-3.12,7.87-7.78-.45-.13-.91-.17-1.39-.1Z"/>
    <path class="cls-4" d="M217.83,123.42c-.36.05-.7.16-1.04.26-.32.1-.65.19-.98.25-.55.1-1.1.09-1.65.03-.35-.04-.7-.12-1.05-.12-.3,0-.59.05-.88.13-.53.16-1.02.42-1.56.55-.63.15-1.26.06-1.87-.13-.63-.19-1.23-.47-1.87-.6-.54-.11-1.07-.06-1.59.09-.52.14-1.03.37-1.48.68,0,0,0,0,0,0,1.66,4.08,4.39,6.74,7.48,6.74,3.35,0,6.27-3.12,7.87-7.78-.45-.13-.91-.17-1.39-.1Z"/>
    <path class="cls-11" d="M205.12,81.33c-1.67-.63-3.2,1.22-2.25,2.74,3.27,5.22,9.86,12.95,19.27,10.86,10.71-2.38-7.89-10.15-17.03-13.6Z"/>
    <path class="cls-11" d="M162.39,82c1.71-.51,3.1,1.46,2.04,2.9-3.65,4.96-10.79,12.18-20.03,9.4-10.51-3.17,8.62-9.53,17.99-12.29Z"/>
    <path class="cls-12" d="M171.6,136.72c9.63-10.03,18.7-5.63,23.17.38,2.36,3.18-2.01,4.07-3.97,2.92-3.34-1.96-5.87-3.36-11.37-1.07-11.26,4.67-8.6-.91-8.03-1.95.05-.1.12-.19.2-.28Z"/>
    <ellipse class="cls-14" cx="151.17" cy="111.38" rx="1.59" ry="3.99"/>
    <ellipse class="cls-14" cx="207.76" cy="111.38" rx="1.59" ry="3.99"/>
    <path class="cls-4" d="M149.31,127.41c-4.95.8-10.9,1.87-11.53,7.42-.35,3.09.32,5.02,3.7,5.77,8.55,1.88,3.62-8.73,6.43-11.91"/>
    <path class="cls-1" d="M204.68,386.14l-2.14-77.85-4.25-62.29c-.15-2.13,1.55-3.95,3.69-3.95h8.14c2.04,0,3.7,1.64,3.72,3.68l-1.25,59.83c-.04,1.84,0,3.69.12,5.53l4.84,76.94c1.86,2.52,3.52,5.75,4.69,9.42,3.07,9.56,2.36,17.51-2.35,18.89-4.71,1.38-11.63-4.33-14.7-13.89-2.07-6.45-2.14-12.58-.52-16.31Z"/>
    <path class="cls-1" d="M153.9,393.71l-2.14-77.85-4.25-62.29c-.15-2.13,1.55-3.95,3.69-3.95h8.14c2.04,0,3.7,1.64,3.72,3.68l-1.25,59.83c-.04,1.84,0,3.69.12,5.53l4.84,76.94c1.86,2.52,3.52,5.75,4.69,9.42,3.07,9.56,2.36,17.51-2.35,18.89-4.71,1.38-11.63-4.33-14.7-13.89-2.07-6.45-2.14-12.58-.52-16.31Z"/>
    <g id="_다리" data-name="다리">
      <path class="cls-6" d="M220.28,501.53s27.1,19.34,33.34,51.42c0,0-7.02,8.89,5.76,15.05,12.78,6.17,27.48,6.2,30.78-1.06,3.3-7.25-11.97-21.03-20.44-22.44,0,0-4.9-51.97-28.83-60.58-23.93-8.61-20.61,17.59-20.61,17.59Z"/>
    </g>
    <g id="_다리-2" data-name="다리">
      <path class="cls-6" d="M163.58,523.19s25.14,21.83,28.31,54.36c0,0-7.83,8.18,4.3,15.53,12.14,7.35,26.76,8.78,30.74,1.87,3.98-6.91-9.92-22.08-18.21-24.28,0,0,.06-52.2-22.94-63.04-23-10.85-22.19,15.55-22.19,15.55Z"/>
    </g>
    <circle class="cls-8" cx="273.22" cy="182.34" r="14.27"/>
    <circle class="cls-8" cx="306.09" cy="88.92" r="10.81"/>
    <ellipse class="cls-15" cx="293.11" cy="71.19" rx="25.52" ry="25.08"/>
    <ellipse class="cls-8" cx="296.14" cy="162.45" rx="22.49" ry="22.06"/>
    <path class="cls-7" d="M103.56,126.59c-5.36,3.51-5.06,5.79-.42,10.69,4.87,5.14,8.93,1.28,13.31-4.47,4.46,2.36,7.47,8.47,12.51,5.97,6.62-3.29,5.39-11.61,1.12-15.77-.69-.68-1.85-1.88-1.86-1.88,1.77-1.24,3.16-.69,5.3-1.77,3.83-1.93,4.28-7.32.7-9.68-3.33-2.19-7.27-2.67-10.14-.14-1.11.98-2.87.2-2.8-1.29.09-1.97.6-3.78-2.17-5.54-5.26-3.32-8.18,2.08-11.69,6.61-5.51-3.42-22.61,2.81-23.12,10.57-.48,7.22,12.09,21.1,19.26,6.69Z"/>
    <path class="cls-3" d="M223.3,77.82c-1.46-5.41-10.16-4.44-12.73.38-1.79,3.37,1.98,5.4.93,8.63-.05.14-.05.42-.04.8.12,3.19,2.31,5.8,5.3,6.92.35.13.76.36,1.26.71,4.16,2.96,4.04,9.73,6.96,12.1,10.15,8.23,12.73-3.4,14.07-6.77,4.2-10.54-.16-19.8-11.31-33.64-4.26-5.28-19.6.58-9.45,7.02"/>
    <path class="cls-9" d="M116.04,231.78c-1.46-5.41-10.16-4.44-12.73.38-1.79,3.37,1.98,5.4.93,8.63-.05.14-.05.42-.04.8.12,3.19,2.31,5.8,5.3,6.92.35.13.76.36,1.26.71,4.16,2.96,4.04,9.73,6.96,12.1,10.15,8.23,12.73-3.4,14.07-6.77,4.2-10.54-.16-19.8-11.31-33.64-4.26-5.28-19.6.58-9.45,7.02"/>
    <path class="cls-3" d="M204.79,431.68c-3.93-9.19-22.77-8.79-27.68-1.15-3.43,5.34,5.08,9.24,3.24,14.47-.08.22-.05.69.03,1.33.71,5.31,5.85,9.96,12.52,12.23.78.26,1.7.7,2.85,1.36,9.47,5.49,10.18,16.73,16.86,21.06,23.27,15.09,27.25-3.86,29.7-9.26,7.67-16.9-3.13-32.89-29.37-57.44-10.01-9.37-42.63-1.79-19.61,10.34"/>
    <path class="cls-16" d="M130.94,489.63c5.82-3.43,3.12-15.09-2.78-17.32-4.12-1.56-5.71,4.14-9.55,3.56-.16-.03-.48.04-.91.16-3.57,1.01-6.11,4.7-6.81,9.09-.08.51-.26,1.13-.57,1.91-2.56,6.47-10.22,8.11-12.34,12.73-7.4,16.07,6.18,16.53,10.22,17.47,12.64,2.96,22.27-5.46,35.8-24.39,5.17-7.22-4.27-26.69-9.66-11.08"/>
  </g>
</svg>