<?xml version="1.0" encoding="UTF-8"?>
<svg id="_레이어_1" data-name="레이어 1" xmlns="http://www.w3.org/2000/svg" xmlns:xlink="http://www.w3.org/1999/xlink" viewBox="0 0 330.06 612.44">
  <defs>
    <style>
      .cls-1 {
        fill: #313543;
      }

      .cls-1, .cls-2, .cls-3, .cls-4, .cls-5, .cls-6, .cls-7, .cls-8, .cls-9, .cls-10, .cls-11, .cls-12, .cls-13, .cls-14, .cls-15, .cls-16, .cls-17 {
        stroke-width: 0px;
      }

      .cls-18 {
        clip-path: url(#clippath);
      }

      .cls-2 {
        fill: none;
      }

      .cls-3, .cls-7, .cls-9, .cls-16 {
        fill: #231815;
      }

      .cls-3, .cls-8 {
        opacity: .3;
      }

      .cls-4 {
        fill: #4bb5d4;
      }

      .cls-5 {
        fill: #8f9bce;
      }

      .cls-6 {
        fill: #2a2c35;
      }

      .cls-7 {
        opacity: .4;
      }

      .cls-8, .cls-15 {
        fill: #251506;
      }

      .cls-9 {
        opacity: .35;
      }

      .cls-10 {
        fill: #f2a9a9;
      }

      .cls-10, .cls-16 {
        opacity: .5;
      }

      .cls-11 {
        fill: #5470ad;
      }

      .cls-12 {
        fill: #223454;
      }

      .cls-13 {
        fill: #283147;
      }

      .cls-14 {
        fill: #fff;
      }

      .cls-15 {
        opacity: .2;
      }

      .cls-17 {
        fill: #717eb1;
      }
    </style>
    <clipPath id="clippath">
      <path class="cls-2" d="M176.11,593.49l77.27-40.12c4.38-2.11,7.16-6.55,7.16-11.41v-99.01c0-2.38-4.93-10-1.93-6.72l-31.01-49.53c-.87-1.39-2.67-19.84-2.94-21.46-6.4-37.8-1.93-100.6,1.29-141.87.51-6.54,2.68-13.31,5.16-19.35l21.36-32.67c.24-.36.45-.73.67-1.11,6.12-10.9,7.01-24.99,7.01-25.04l.4-83.04c0-9.9-5.68-18.92-14.6-23.21L175.28,5.01l-8-3.27c-5.96-2.44-12.66-2.31-18.53.36l-8.73,3.97-71.72,32.89c-8.92,4.29-14.6,13.31-14.6,23.21v83.68c0,8.91,2.68,17.62,7.7,24.98l22.48,32.97c3.7,5.43,5.76,11.8,5.94,18.36,1.14,41.57,4.97,122.13-1.42,159.95-.28,1.64-.87,3.19-1.75,4.6l-31.01,49.53c-1.26,2.02-1.93,4.34-1.93,6.72v99.01c0,4.86,2.78,9.3,7.16,11.41l77.27,37.67s13.29,7.8,20.62,7.8,17.36-5.35,17.36-5.35Z"/>
    </clipPath>
  </defs>
  <path class="cls-5" d="M175.87,593.56l77.27-40.12c4.38-2.11,7.16-6.55,7.16-11.41v-93.64c0-5.89-1.66-11.67-4.78-16.66l-26.05-41.6c-2.44-3.9-4.01-8.29-4.56-12.86-5.18-43.07-2.11-102.98-.88-149.53.27-10.17,3.46-20.03,9.18-28.44l16.13-23.66c7.14-10.47,10.96-22.85,10.96-35.53v-66.12c0-17.1-9.8-32.68-25.22-40.09l-59.54-28.6c-.34-.16-.68-.31-1.02-.45h0c-10.74-4.39-22.81-4.16-33.37.64l-1.37.62-71.72,32.89c-8.92,4.29-14.6,13.31-14.6,23.21v77.9c0,12.67,3.82,25.05,10.96,35.53l16.13,23.66c5.73,8.4,8.92,18.27,9.18,28.44,1.23,46.54,4.3,106.46-.88,149.53-.55,4.57-2.11,8.96-4.56,12.86l-26.05,41.6c-3.13,4.99-4.78,10.77-4.78,16.66v93.64c0,4.86,2.78,9.3,7.16,11.41l76.7,37.4c.35.17.69.35,1.02.54,2.4,1.36,13.64,7.54,20.16,7.54,7.33,0,17.36-5.35,17.36-5.35Z"/>
  <g class="cls-18">
    <path class="cls-17" d="M268.1,142.55c-3.52-3.14-5.3-8.84-8.84.88-4.75,13.06-21.95,37.35-43.75,49.86-21.15,12.14-52.48,8.31-68.25,8.97-34.08,1.43,23.72,11.07,58.64,10.6,7.29-.1,11.05,1.76,11.83,9.22,2.71,26.17,8.18,82.31,8.09,96-.12,18.08,38.84-172.1,38.84-172.1l3.44-3.44Z"/>
    <path class="cls-17" d="M330.06,500.19c-.44-4.77-2.62-3.63-7.22-2.28-13.4,3.93,3.79,21.33-21.03,14.85-24.07-6.29-31.29-76.74-38.53-88.63-8.34-13.7-3.2,66.91-4.43,80.21-3.78,40.72-43.28,65.52-43.28,65.52,0,0-33.24,22.35-36.05,28.56-15,33.16,147.69-96.44,147.69-96.44l2.84-1.79Z"/>
    <path class="cls-17" d="M.08,525.8c-.56-4.4,1.69-3.58,6.22-2.82,13.2,2.23.82,19.87,22.48,11.43,21.02-8.19,13.41-73.28,17.7-84.88,4.94-13.37,16.53,60.8,20.37,72.83,11.76,36.81,53.35,55.46,53.35,55.46,0,0,35.31,17.04,39.17,22.43,20.61,28.77-156.3-73.1-156.3-73.1l-2.99-1.34Z"/>
  </g>
  <ellipse class="cls-10" cx="136.6" cy="127.97" rx="14.25" ry="10.59"/>
  <ellipse class="cls-10" cx="234.93" cy="127.97" rx="14.25" ry="10.59"/>
  <ellipse class="cls-13" cx="156.49" cy="117.86" rx="9.36" ry="16.29"/>
  <ellipse class="cls-13" cx="215.93" cy="117.86" rx="9.36" ry="16.29"/>
  <path class="cls-4" d="M163.23,126.74c-.37.05-.71.17-1.06.27-.33.1-.66.19-1,.25-.56.11-1.12.1-1.69.03-.36-.04-.71-.12-1.07-.12-.31,0-.61.05-.9.13-.54.16-1.04.43-1.59.56-.64.15-1.29.06-1.91-.13-.64-.2-1.25-.48-1.91-.61-.55-.11-1.09-.06-1.62.09-.54.15-1.06.37-1.51.69,0,0,0,0,0,0,1.7,4.17,4.49,6.89,7.65,6.89,3.42,0,6.41-3.19,8.04-7.95-.46-.14-.93-.18-1.42-.11Z"/>
  <path class="cls-4" d="M222.56,126.1c-.37.05-.71.17-1.06.27-.33.1-.66.19-1,.25-.56.11-1.12.1-1.69.03-.36-.04-.71-.12-1.07-.12-.31,0-.61.05-.9.13-.54.16-1.04.43-1.59.56-.64.15-1.29.06-1.91-.13-.64-.2-1.25-.48-1.91-.61-.55-.11-1.09-.06-1.62.09-.54.15-1.06.37-1.51.69,0,0,0,0,0,0,1.7,4.17,4.49,6.89,7.65,6.89,3.42,0,6.41-3.19,8.04-7.95-.46-.14-.93-.18-1.42-.11Z"/>
  <path class="cls-11" d="M209.57,83.1c-1.71-.65-3.27,1.25-2.3,2.8,3.34,5.33,10.07,13.23,19.69,11.1,10.95-2.43-8.06-10.37-17.4-13.89Z"/>
  <path class="cls-11" d="M165.91,83.78c1.75-.52,3.16,1.49,2.08,2.96-3.73,5.07-11.03,12.45-20.46,9.6-10.73-3.24,8.81-9.74,18.38-12.56Z"/>
  <path class="cls-12" d="M175.33,139.68c9.84-10.25,19.11-5.76,23.68.39,2.42,3.25-2.05,4.15-4.06,2.98-3.42-2-6-3.43-11.62-1.1-11.5,4.77-8.78-.93-8.2-1.99.06-.1.13-.2.21-.28Z"/>
  <ellipse class="cls-14" cx="154.45" cy="113.79" rx="1.63" ry="4.07"/>
  <ellipse class="cls-14" cx="212.27" cy="113.79" rx="1.63" ry="4.07"/>
  <path class="cls-4" d="M152.55,130.18c-5.05.82-11.14,1.91-11.78,7.58-.36,3.15.32,5.13,3.78,5.89,8.74,1.92,3.69-8.91,6.57-12.17"/>
  <path class="cls-1" d="M209.12,394.51l-2.19-79.54-4.34-63.64c-.15-2.18,1.58-4.03,3.77-4.03h8.32c2.08,0,3.78,1.68,3.8,3.76l-1.27,61.12c-.04,1.88,0,3.77.12,5.65l4.94,78.6c1.9,2.57,3.59,5.88,4.8,9.63,3.14,9.76,2.41,17.89-2.4,19.3-4.81,1.41-11.88-4.42-15.02-14.19-2.12-6.59-2.18-12.85-.53-16.67Z"/>
  <path class="cls-1" d="M157.24,402.25l-2.19-79.54-4.34-63.64c-.15-2.18,1.58-4.03,3.77-4.03h8.32c2.08,0,3.78,1.68,3.8,3.76l-1.27,61.12c-.04,1.88,0,3.77.12,5.65l4.94,78.6c1.9,2.57,3.59,5.88,4.8,9.63,3.14,9.76,2.41,17.89-2.4,19.3-4.81,1.41-11.88-4.42-15.02-14.19-2.12-6.59-2.18-12.85-.53-16.67Z"/>
  <g id="_다리" data-name="다리">
    <path class="cls-6" d="M225.06,512.4s27.69,19.76,34.06,52.54c0,0-7.17,9.08,5.88,15.38,13.06,6.3,28.07,6.33,31.45-1.08s-12.23-21.49-20.88-22.92c0,0-5.01-53.09-29.45-61.89-24.45-8.8-21.06,17.97-21.06,17.97Z"/>
  </g>
  <g id="_다리-2" data-name="다리">
    <path class="cls-6" d="M167.13,534.54s25.69,22.3,28.92,55.54c0,0-8,8.36,4.4,15.87,12.4,7.51,27.34,8.97,31.41,1.91,4.06-7.06-10.13-22.55-18.61-24.8,0,0,.06-53.33-23.44-64.41-23.5-11.08-22.67,15.89-22.67,15.89Z"/>
  </g>
  <circle class="cls-8" cx="279.14" cy="186.29" r="14.58"/>
  <circle class="cls-8" cx="312.73" cy="90.85" r="11.05"/>
  <ellipse class="cls-15" cx="299.47" cy="72.73" rx="26.07" ry="25.63"/>
  <ellipse class="cls-8" cx="302.56" cy="165.97" rx="22.98" ry="22.54"/>
  <path class="cls-7" d="M105.8,129.33c-5.48,3.59-5.17,5.92-.43,10.92s9.13,1.31,13.6-4.57c4.56,2.42,7.63,8.66,12.79,6.1,6.77-3.37,5.5-11.86,1.15-16.11-.71-.69-1.9-1.92-1.9-1.92,1.8-1.27,3.23-.71,5.42-1.81,3.91-1.97,4.37-7.48.71-9.89-3.4-2.24-7.43-2.73-10.36-.14-1.14,1-2.93.2-2.86-1.31.09-2.02.61-3.87-2.22-5.66-5.37-3.39-8.36,2.13-11.95,6.75-5.63-3.49-23.1,2.87-23.62,10.8-.49,7.38,12.35,21.56,19.67,6.83Z"/>
  <path class="cls-3" d="M228.14,79.5c-1.49-5.53-10.38-4.53-13,.39-1.83,3.44,2.03,5.51.95,8.82-.05.14-.05.43-.04.82.12,3.26,2.36,5.93,5.42,7.07.35.13.77.36,1.29.73,4.25,3.02,4.13,9.94,7.11,12.36,10.37,8.41,13-3.47,14.37-6.91,4.29-10.76-.17-20.23-11.56-34.37-4.35-5.4-20.03.59-9.66,7.18"/>
  <path class="cls-9" d="M118.55,236.81c-1.49-5.53-10.38-4.53-13,.39-1.83,3.44,2.03,5.51.95,8.82-.05.14-.05.43-.04.82.12,3.26,2.36,5.93,5.42,7.07.35.13.77.36,1.29.73,4.25,3.02,4.13,9.94,7.11,12.36,10.37,8.41,13-3.47,14.37-6.91,4.29-10.76-.17-20.23-11.56-34.37-4.35-5.4-20.03.59-9.66,7.18"/>
  <path class="cls-3" d="M209.23,441.04c-4.02-9.38-23.26-8.98-28.28-1.17-3.51,5.46,5.19,9.44,3.31,14.78-.08.23-.06.71.03,1.36.73,5.42,5.98,10.17,12.79,12.49.79.27,1.74.71,2.91,1.39,9.68,5.61,10.4,17.09,17.23,21.52,23.78,15.41,27.85-3.94,30.35-9.46,7.83-17.27-3.2-33.61-30.01-58.69-10.23-9.57-43.55-1.83-20.03,10.56"/>
  <path class="cls-16" d="M133.78,500.25c5.95-3.5,3.19-15.42-2.84-17.7-4.21-1.6-5.84,4.23-9.76,3.63-.17-.03-.49.04-.93.16-3.64,1.03-6.24,4.8-6.96,9.28-.08.52-.27,1.16-.58,1.96-2.62,6.61-10.44,8.29-12.61,13.01-7.56,16.42,6.31,16.88,10.44,17.85,12.92,3.02,22.75-5.58,36.58-24.92,5.28-7.38-4.36-27.27-9.87-11.32"/>
</svg>