<?xml version="1.0" encoding="UTF-8"?>
<svg id="_레이어_1" data-name="레이어 1" xmlns="http://www.w3.org/2000/svg" xmlns:xlink="http://www.w3.org/1999/xlink" viewBox="0 0 385.31 714.97">
  <defs>
    <style>
      .cls-1 {
        fill: #313543;
      }

      .cls-1, .cls-2, .cls-3, .cls-4, .cls-5, .cls-6, .cls-7, .cls-8, .cls-9, .cls-10, .cls-11, .cls-12, .cls-13, .cls-14, .cls-15, .cls-16, .cls-17 {
        stroke-width: 0px;
      }

      .cls-18 {
        clip-path: url(#clippath);
      }

      .cls-2 {
        fill: none;
      }

      .cls-3, .cls-7, .cls-9, .cls-16 {
        fill: #231815;
      }

      .cls-3, .cls-8, .cls-19 {
        opacity: .3;
      }

      .cls-4 {
        fill: #4bb5d4;
      }

      .cls-5 {
        fill: #8f9bce;
      }

      .cls-6 {
        fill: #2a2c35;
      }

      .cls-7 {
        opacity: .4;
      }

      .cls-8, .cls-15 {
        fill: #251506;
      }

      .cls-9 {
        opacity: .35;
      }

      .cls-10 {
        fill: #f2a9a9;
      }

      .cls-10, .cls-16 {
        opacity: .5;
      }

      .cls-11 {
        fill: #5470ad;
      }

      .cls-12 {
        fill: #223454;
      }

      .cls-13 {
        fill: #283147;
      }

      .cls-14 {
        fill: #fff;
      }

      .cls-15 {
        opacity: .2;
      }

      .cls-17 {
        fill: #717eb1;
      }
    </style>
    <clipPath id="clippath">
      <path class="cls-2" d="M205.59,692.84l90.2-46.83c5.11-2.47,8.36-7.64,8.36-13.32v-115.59c0-2.78-5.75-11.67-2.25-7.85l-36.2-57.82c-1.02-1.62-3.11-23.16-3.43-25.05-7.47-44.13-2.26-117.44,1.51-165.62.6-7.64,3.13-15.54,6.02-22.58l24.94-38.14c.29-.42.53-.86.78-1.3,7.15-12.73,8.18-29.18,8.18-29.23l.46-96.94c0-11.56-6.63-22.09-17.04-27.09L204.62,5.85l-9.34-3.82c-6.96-2.85-14.78-2.7-21.63.42l-10.19,4.63-83.72,38.39c-10.42,5-17.04,15.54-17.04,27.09v97.69c0,10.4,3.13,20.56,8.99,29.16l26.24,38.49c4.32,6.33,6.72,13.77,6.93,21.43,1.33,48.52,5.8,142.58-1.66,186.72-.32,1.91-1.02,3.73-2.05,5.37l-36.2,57.82c-1.47,2.35-2.25,5.07-2.25,7.85v115.59c0,5.68,3.25,10.85,8.36,13.32l90.2,43.98s15.51,9.1,24.07,9.1,20.26-6.25,20.26-6.25Z"/>
    </clipPath>
  </defs>
  <g class="cls-19">
    <path class="cls-5" d="M205.31,692.93l90.2-46.83c5.11-2.47,8.36-7.64,8.36-13.32v-109.31c0-6.88-1.94-13.62-5.59-19.45l-30.41-48.57c-2.85-4.55-4.68-9.67-5.32-15.01-6.05-50.28-2.46-120.22-1.03-174.56.31-11.87,4.04-23.39,10.72-33.2l18.82-27.62c8.33-12.23,12.79-26.68,12.79-41.47v-77.19c0-19.96-11.44-38.15-29.44-46.8L204.93,6.21c-.39-.19-.79-.36-1.19-.53h0c-12.53-5.13-26.62-4.85-38.95.75l-1.6.73-83.72,38.39c-10.42,5-17.04,15.54-17.04,27.09v90.95c0,14.8,4.46,29.25,12.79,41.47l18.82,27.62c6.69,9.81,10.41,21.33,10.72,33.2,1.43,54.33,5.02,124.28-1.03,174.56-.64,5.34-2.47,10.46-5.32,15.01l-30.41,48.57c-3.65,5.83-5.59,12.57-5.59,19.45v109.31c0,5.68,3.25,10.85,8.36,13.32l89.54,43.66c.41.2.8.41,1.19.63,2.8,1.59,15.92,8.8,23.53,8.8,8.56,0,20.26-6.25,20.26-6.25Z"/>
    <g class="cls-18">
      <path class="cls-17" d="M312.98,166.41c-4.11-3.67-6.19-10.32-10.32,1.03-5.54,15.24-25.62,43.6-51.08,58.21-24.69,14.17-61.26,9.7-79.68,10.47-39.79,1.67,27.69,12.92,68.46,12.37,8.51-.11,12.9,2.06,13.81,10.77,3.17,30.55,9.55,96.09,9.44,112.07-.15,21.11,45.34-200.91,45.34-200.91l4.02-4.01Z"/>
      <path class="cls-17" d="M385.31,583.92c-.52-5.57-3.06-4.24-8.42-2.66-15.64,4.59,4.42,24.9-24.55,17.34-28.1-7.34-36.53-89.59-44.98-103.47-9.73-16-3.73,78.12-5.18,93.64-4.41,47.53-50.52,76.49-50.52,76.49,0,0-38.81,26.09-42.09,33.34-17.51,38.71,172.41-112.59,172.41-112.59l3.32-2.09Z"/>
      <path class="cls-17" d="M.1,613.82c-.65-5.14,1.97-4.18,7.26-3.29,15.42,2.61.95,23.2,26.24,13.34,24.53-9.56,15.66-85.55,20.66-99.09,5.77-15.6,19.3,70.98,23.78,85.02,13.73,42.98,62.29,64.74,62.29,64.74,0,0,41.22,19.89,45.73,26.18,24.06,33.58-182.46-85.34-182.46-85.34l-3.49-1.57Z"/>
    </g>
    <ellipse class="cls-10" cx="159.47" cy="149.39" rx="16.64" ry="12.36"/>
    <ellipse class="cls-10" cx="274.26" cy="149.39" rx="16.64" ry="12.36"/>
    <ellipse class="cls-13" cx="182.68" cy="137.59" rx="10.93" ry="19.01"/>
    <ellipse class="cls-13" cx="252.08" cy="137.59" rx="10.93" ry="19.01"/>
    <path class="cls-4" d="M190.56,147.96c-.43.06-.83.19-1.24.31-.38.11-.77.22-1.16.3-.66.13-1.31.11-1.97.03-.42-.05-.83-.14-1.25-.14-.36,0-.71.06-1.05.16-.63.19-1.21.5-1.86.65-.75.18-1.51.07-2.23-.15-.75-.23-1.46-.57-2.23-.72-.64-.13-1.27-.07-1.89.1-.63.17-1.23.44-1.77.81,0,0,0,0,0,0,1.98,4.87,5.24,8.04,8.93,8.04,3.99,0,7.48-3.72,9.39-9.28-.53-.16-1.09-.21-1.65-.12Z"/>
    <path class="cls-4" d="M259.82,147.2c-.43.06-.83.19-1.24.31-.38.11-.77.22-1.16.3-.66.13-1.31.11-1.97.03-.42-.05-.83-.14-1.25-.14-.36,0-.71.06-1.05.16-.63.19-1.21.5-1.86.65-.75.18-1.51.07-2.23-.15-.75-.23-1.46-.57-2.23-.72-.64-.13-1.27-.07-1.89.1-.63.17-1.23.44-1.77.81,0,0,0,0,0,0,1.98,4.87,5.24,8.04,8.93,8.04,3.99,0,7.48-3.72,9.39-9.28-.53-.16-1.09-.21-1.65-.12Z"/>
    <path class="cls-11" d="M244.66,97.01c-1.99-.75-3.81,1.46-2.68,3.26,3.9,6.23,11.76,15.45,22.99,12.96,12.78-2.84-9.41-12.1-20.31-16.22Z"/>
    <path class="cls-11" d="M193.69,97.8c2.04-.6,3.69,1.74,2.43,3.45-4.36,5.92-12.87,14.53-23.89,11.21-12.53-3.78,10.28-11.37,21.46-14.66Z"/>
    <path class="cls-12" d="M204.68,163.07c11.48-11.96,22.3-6.72,27.64.45,2.82,3.79-2.4,4.85-4.74,3.48-3.99-2.33-7-4-13.57-1.28-13.43,5.57-10.25-1.09-9.58-2.32.07-.12.15-.23.24-.33Z"/>
    <ellipse class="cls-14" cx="180.31" cy="132.84" rx="1.9" ry="4.75"/>
    <ellipse class="cls-14" cx="247.8" cy="132.84" rx="1.9" ry="4.75"/>
    <path class="cls-4" d="M178.09,151.97c-5.9.95-13,2.23-13.75,8.85-.42,3.68.38,5.99,4.42,6.88,10.2,2.25,4.31-10.41,7.67-14.2"/>
    <path class="cls-1" d="M244.13,460.56l-2.55-92.85-5.07-74.3c-.17-2.55,1.84-4.71,4.4-4.71h9.71c2.43,0,4.41,1.96,4.44,4.39l-1.48,71.35c-.05,2.2,0,4.4.14,6.6l5.77,91.76c2.22,3,4.19,6.86,5.6,11.24,3.66,11.4,2.81,20.88-2.8,22.53-5.61,1.65-13.87-5.16-17.53-16.56-2.47-7.69-2.55-15.01-.62-19.46Z"/>
    <path class="cls-1" d="M183.56,469.59l-2.55-92.85-5.07-74.3c-.17-2.55,1.84-4.71,4.4-4.71h9.71c2.43,0,4.41,1.96,4.44,4.39l-1.48,71.35c-.05,2.2,0,4.4.14,6.6l5.77,91.76c2.22,3,4.19,6.86,5.6,11.24,3.66,11.4,2.81,20.88-2.8,22.53-5.61,1.65-13.87-5.16-17.53-16.56-2.47-7.69-2.55-15.01-.62-19.46Z"/>
    <g id="_다리" data-name="다리">
      <path class="cls-6" d="M262.73,598.18s32.33,23.06,39.77,61.33c0,0-8.38,10.6,6.87,17.96,15.24,7.35,32.77,7.39,36.71-1.26,3.94-8.65-14.28-25.09-24.38-26.76,0,0-5.84-61.98-34.38-72.25-28.54-10.27-24.59,20.98-24.59,20.98Z"/>
    </g>
    <g id="_다리-2" data-name="다리">
      <path class="cls-6" d="M195.1,624.02s29.99,26.03,33.76,64.83c0,0-9.34,9.76,5.13,18.53,14.48,8.77,31.92,10.47,36.66,2.23,4.74-8.24-11.83-26.33-21.73-28.95,0,0,.07-62.26-27.36-75.19-27.43-12.94-26.47,18.55-26.47,18.55Z"/>
    </g>
    <circle class="cls-8" cx="325.87" cy="217.48" r="17.02"/>
    <circle class="cls-8" cx="365.08" cy="106.06" r="12.9"/>
    <ellipse class="cls-15" cx="349.6" cy="84.91" rx="30.43" ry="29.92"/>
    <ellipse class="cls-8" cx="353.21" cy="193.75" rx="26.82" ry="26.31"/>
    <path class="cls-7" d="M123.51,150.98c-6.39,4.19-6.04,6.91-.5,12.75,5.8,6.13,10.66,1.53,15.88-5.33,5.32,2.82,8.91,10.11,14.93,7.12,7.9-3.93,6.43-13.84,1.34-18.81-.83-.81-2.21-2.24-2.22-2.24,2.11-1.48,3.77-.82,6.32-2.11,4.57-2.3,5.1-8.73.83-11.54-3.97-2.62-8.67-3.18-12.09-.16-1.33,1.17-3.42.23-3.34-1.53.11-2.35.72-4.51-2.59-6.6-6.27-3.96-9.76,2.48-13.95,7.88-6.57-4.08-26.96,3.35-27.57,12.6-.57,8.62,14.42,25.17,22.97,7.97Z"/>
    <path class="cls-3" d="M266.33,92.81c-1.74-6.45-12.12-5.29-15.18.46-2.14,4.02,2.37,6.44,1.11,10.3-.05.17-.06.5-.04.96.15,3.8,2.76,6.92,6.32,8.25.41.15.9.42,1.5.85,4.96,3.53,4.82,11.61,8.3,14.43,12.11,9.82,15.18-4.06,16.78-8.07,5.01-12.57-.19-23.61-13.49-40.12-5.08-6.3-23.38.69-11.27,8.38"/>
    <path class="cls-9" d="M138.4,276.45c-1.74-6.45-12.12-5.29-15.18.46-2.14,4.02,2.37,6.44,1.11,10.3-.05.17-.06.5-.04.96.15,3.8,2.76,6.92,6.32,8.25.41.15.9.42,1.5.85,4.96,3.53,4.82,11.61,8.3,14.43,12.11,9.82,15.18-4.06,16.78-8.07,5.01-12.57-.19-23.61-13.49-40.12-5.08-6.3-23.38.69-11.27,8.38"/>
    <path class="cls-3" d="M244.25,514.88c-4.69-10.96-27.15-10.49-33.01-1.37-4.09,6.37,6.06,11.02,3.86,17.25-.09.27-.07.82.04,1.58.85,6.33,6.98,11.87,14.93,14.58.92.32,2.03.83,3.4,1.62,11.3,6.55,12.14,19.95,20.11,25.12,27.76,18,32.51-4.6,35.43-11.05,9.14-20.16-3.73-39.23-35.03-68.51-11.94-11.17-50.85-2.14-23.39,12.33"/>
    <path class="cls-16" d="M156.18,583.99c6.95-4.09,3.72-18-3.32-20.66-4.92-1.86-6.81,4.94-11.39,4.24-.2-.03-.58.05-1.09.19-4.25,1.2-7.28,5.61-8.12,10.84-.1.61-.31,1.35-.68,2.28-3.06,7.72-12.19,9.67-14.72,15.18-8.82,19.17,7.37,19.71,12.19,20.84,15.08,3.53,26.56-6.51,42.7-29.09,6.16-8.62-5.09-31.83-11.52-13.22"/>
  </g>
</svg>