<svg width="43" height="43" viewBox="0 0 43 43" fill="none" xmlns="http://www.w3.org/2000/svg">
<path d="M21.2301 42.4602C32.9552 42.4602 42.4602 32.9552 42.4602 21.2301C42.4602 9.50505 32.9552 0 21.2301 0C9.50505 0 0 9.50505 0 21.2301C0 32.9552 9.50505 42.4602 21.2301 42.4602Z" fill="#495EF6"/>
<path d="M30.4918 18.0212L25.253 12.8365L26.9785 11.1083C27.451 10.6349 28.0318 10.3982 28.7202 10.3982C29.4095 10.3982 29.9895 10.6349 30.4611 11.1083L32.1875 12.8365C32.66 13.309 32.9066 13.8808 32.9265 14.5494C32.9473 15.2188 32.7214 15.7898 32.249 16.2622L30.4918 18.0212ZM28.7049 19.8424L15.6371 32.9283H10.3982V27.6813L23.4651 14.5954L28.7049 19.8424Z" fill="white"/>
</svg>
