<svg width="32" height="32" viewBox="0 0 32 32" fill="none" xmlns="http://www.w3.org/2000/svg">
<path d="M30 12C30 12.2652 29.8946 12.5196 29.7071 12.7071C29.5196 12.8946 29.2652 13 29 13H27V15C27 15.2652 26.8946 15.5196 26.7071 15.7071C26.5196 15.8946 26.2652 16 26 16C25.7348 16 25.4804 15.8946 25.2929 15.7071C25.1053 15.5196 25 15.2652 25 15V13H23C22.7348 13 22.4804 12.8946 22.2929 12.7071C22.1053 12.5196 22 12.2652 22 12C22 11.7348 22.1053 11.4804 22.2929 11.2929C22.4804 11.1054 22.7348 11 23 11H25V9C25 8.73478 25.1053 8.48043 25.2929 8.29289C25.4804 8.10536 25.7348 8 26 8C26.2652 8 26.5196 8.10536 26.7071 8.29289C26.8946 8.48043 27 8.73478 27 9V11H29C29.2652 11 29.5196 11.1054 29.7071 11.2929C29.8946 11.4804 30 11.7348 30 12ZM18 7H19V8C19 8.26522 19.1053 8.51957 19.2929 8.70711C19.4804 8.89464 19.7348 9 20 9C20.2652 9 20.5196 8.89464 20.7071 8.70711C20.8946 8.51957 21 8.26522 21 8V7H22C22.2652 7 22.5196 6.89464 22.7071 6.70711C22.8946 6.51957 23 6.26522 23 6C23 5.73478 22.8946 5.48043 22.7071 5.29289C22.5196 5.10536 22.2652 5 22 5H21V4C21 3.73478 20.8946 3.48043 20.7071 3.29289C20.5196 3.10536 20.2652 3 20 3C19.7348 3 19.4804 3.10536 19.2929 3.29289C19.1053 3.48043 19 3.73478 19 4V5H18C17.7348 5 17.4804 5.10536 17.2929 5.29289C17.1053 5.48043 17 5.73478 17 6C17 6.26522 17.1053 6.51957 17.2929 6.70711C17.4804 6.89464 17.7348 7 18 7ZM26.1425 18.7913C24.3688 19.1417 22.5361 19.0499 20.8063 18.5239C19.0764 17.998 17.5028 17.0541 16.2244 15.7756C14.9459 14.4972 14.002 12.9235 13.4761 11.1937C12.9501 9.46393 12.8583 7.63121 13.2087 5.8575C13.2431 5.68343 13.2305 5.50337 13.1722 5.33578C13.114 5.16819 13.0122 5.01911 12.8774 4.90384C12.7425 4.78857 12.5794 4.71125 12.4048 4.67982C12.2302 4.64839 12.0503 4.66399 11.8837 4.725C9.99016 5.41741 8.30156 6.57578 6.97389 8.09313C5.64621 9.61048 4.72225 11.4379 4.28733 13.4066C3.85242 15.3754 3.92056 17.422 4.48548 19.3574C5.05039 21.2929 6.09387 23.0548 7.51954 24.4804C8.94521 25.9061 10.7071 26.9496 12.6426 27.5145C14.578 28.0794 16.6246 28.1476 18.5933 27.7127C20.5621 27.2777 22.3895 26.3538 23.9069 25.0261C25.4242 23.6984 26.5826 22.0098 27.275 20.1162C27.336 19.9497 27.3516 19.7698 27.3202 19.5952C27.2887 19.4206 27.2114 19.2575 27.0962 19.1226C26.9809 18.9878 26.8318 18.886 26.6642 18.8278C26.4966 18.7695 26.3166 18.7569 26.1425 18.7913Z" fill="#5467F5"/>
</svg>
