<svg width="32" height="32" viewBox="0 0 32 32" fill="none" xmlns="http://www.w3.org/2000/svg">
<g clip-path="url(#clip0_787_4234)">
<path d="M23.7484 7.87666C23.6536 7.78749 23.5386 7.72256 23.4133 7.6874C23.2879 7.65225 23.156 7.6479 23.0286 7.67475C22.8718 7.11098 22.6051 6.58375 22.2439 6.12336C21.8827 5.66296 21.4341 5.27847 20.9239 4.99197C20.4136 4.70547 19.8518 4.5226 19.2707 4.45388C18.6895 4.38516 18.1006 4.43194 17.5376 4.59153C17.1832 3.81827 16.6143 3.163 15.8984 2.70361C15.1826 2.24421 14.3499 2 13.4993 2C12.6487 2 11.816 2.24421 11.1001 2.70361C10.3843 3.163 9.81538 3.81827 9.46102 4.59153C8.89816 4.43173 8.30928 4.38471 7.72819 4.45316C7.14711 4.52161 6.58527 4.70419 6.07495 4.9904C5.56463 5.27661 5.11588 5.66082 4.75447 6.12096C4.39306 6.5811 4.12612 7.10811 3.96898 7.67172C3.8363 7.64449 3.69891 7.65107 3.56944 7.69084C3.43997 7.73062 3.32258 7.80231 3.22807 7.89933C3.13357 7.99635 3.06498 8.11558 3.02861 8.24605C2.99225 8.37652 2.98928 8.51404 3.01998 8.64595L6.10522 21.7542C6.18874 22.1086 6.38953 22.4244 6.67504 22.6503C6.96055 22.8763 7.31403 22.9991 7.67813 22.999H19.3205C19.6846 22.9991 20.038 22.8763 20.3235 22.6503C20.6091 22.4244 20.8099 22.1086 20.8934 21.7542L23.9776 8.64595C24.0098 8.50887 24.0055 8.36576 23.9653 8.23082C23.9251 8.09588 23.8504 7.97379 23.7484 7.87666ZM7.67813 21.3837L4.90888 9.61615L8.7301 10.7075L10.1536 21.3837H7.67813ZM12.8996 7.83123L9.41761 9.22443L5.52371 8.11189C5.63643 7.70412 5.83924 7.32685 6.11718 7.0079C6.39512 6.68895 6.74112 6.43645 7.12964 6.26902C7.51817 6.1016 7.93932 6.02352 8.36204 6.04054C8.78476 6.05756 9.19827 6.16924 9.57208 6.36736C9.68202 6.42567 9.80394 6.45779 9.92834 6.46121C10.0527 6.46463 10.1763 6.43926 10.2892 6.38707C10.4022 6.33488 10.5016 6.25729 10.5796 6.16036C10.6577 6.06342 10.7123 5.94976 10.7391 5.82825C10.8789 5.20072 11.2285 4.6396 11.7301 4.23745C12.2317 3.8353 12.8554 3.61615 13.4983 3.61615C14.1412 3.61615 14.7649 3.8353 15.2665 4.23745C15.7681 4.6396 16.1176 5.20072 16.2574 5.82825C16.2843 5.94976 16.3389 6.06342 16.4169 6.16036C16.495 6.25729 16.5944 6.33488 16.7073 6.38707C16.8203 6.43926 16.9438 6.46463 17.0682 6.46121C17.1926 6.45779 17.3146 6.42567 17.4245 6.36736C17.7984 6.16886 18.2121 6.05687 18.635 6.03965C19.058 6.02244 19.4794 6.10043 19.8682 6.26789C20.257 6.43534 20.6032 6.68797 20.8813 7.00714C21.1594 7.3263 21.3622 7.70384 21.4749 8.11189L17.582 9.22241L14.1 7.82921C13.7145 7.67567 13.2846 7.67639 12.8996 7.83123ZM19.3205 21.3837H16.845L18.2685 10.7075L22.0897 9.61615L19.3205 21.3837Z" fill="#5467F5"/>
</g>
<defs>
<clipPath id="clip0_787_4234">
<rect width="32" height="32" fill="white"/>
</clipPath>
</defs>
</svg>
