<svg width="32" height="32" viewBox="0 0 32 32" fill="none" xmlns="http://www.w3.org/2000/svg">
<g clip-path="url(#clip0_787_3400)">
<path d="M12.6667 4.33333V1.83333C12.6667 1.61232 12.7545 1.40036 12.9107 1.24408C13.067 1.0878 13.279 1 13.5 1C13.721 1 13.933 1.0878 14.0893 1.24408C14.2455 1.40036 14.3333 1.61232 14.3333 1.83333V4.33333C14.3333 4.55435 14.2455 4.76631 14.0893 4.92259C13.933 5.07887 13.721 5.16667 13.5 5.16667C13.279 5.16667 13.067 5.07887 12.9107 4.92259C12.7545 4.76631 12.6667 4.55435 12.6667 4.33333ZM13.5 6.83333C12.1815 6.83333 10.8925 7.22433 9.7962 7.95687C8.69987 8.68941 7.84539 9.7306 7.3408 10.9488C6.83622 12.167 6.7042 13.5074 6.96143 14.8006C7.21867 16.0938 7.8536 17.2817 8.78595 18.214C9.7183 19.1464 10.9062 19.7813 12.1994 20.0386C13.4926 20.2958 14.833 20.1638 16.0512 19.6592C17.2694 19.1546 18.3106 18.3001 19.0431 17.2038C19.7757 16.1075 20.1667 14.8185 20.1667 13.5C20.1647 11.7325 19.4617 10.0379 18.2119 8.78809C16.9621 7.53826 15.2675 6.83526 13.5 6.83333ZM6.24375 7.42292C6.40012 7.57928 6.6122 7.66713 6.83333 7.66713C7.05447 7.66713 7.26655 7.57928 7.42292 7.42292C7.57928 7.26655 7.66713 7.05447 7.66713 6.83333C7.66713 6.6122 7.57928 6.40012 7.42292 6.24375L5.75625 4.57708C5.59988 4.42072 5.3878 4.33287 5.16667 4.33287C4.94553 4.33287 4.73345 4.42072 4.57708 4.57708C4.42072 4.73345 4.33287 4.94553 4.33287 5.16667C4.33287 5.3878 4.42072 5.59988 4.57708 5.75625L6.24375 7.42292ZM6.24375 19.5771L4.57708 21.2437C4.42072 21.4001 4.33287 21.6122 4.33287 21.8333C4.33287 22.0545 4.42072 22.2666 4.57708 22.4229C4.73345 22.5793 4.94553 22.6671 5.16667 22.6671C5.3878 22.6671 5.59988 22.5793 5.75625 22.4229L7.42292 20.7563C7.50034 20.6788 7.56176 20.5869 7.60366 20.4857C7.64556 20.3846 7.66713 20.2762 7.66713 20.1667C7.66713 20.0572 7.64556 19.9487 7.60366 19.8476C7.56176 19.7464 7.50034 19.6545 7.42292 19.5771C7.34549 19.4997 7.25357 19.4382 7.15241 19.3963C7.05125 19.3544 6.94283 19.3329 6.83333 19.3329C6.72384 19.3329 6.61541 19.3544 6.51425 19.3963C6.41309 19.4382 6.32118 19.4997 6.24375 19.5771ZM20.1667 7.66667C20.2761 7.66675 20.3845 7.64527 20.4857 7.60345C20.5869 7.56162 20.6788 7.50028 20.7563 7.42292L22.4229 5.75625C22.5793 5.59988 22.6671 5.3878 22.6671 5.16667C22.6671 4.94553 22.5793 4.73345 22.4229 4.57708C22.2666 4.42072 22.0545 4.33287 21.8333 4.33287C21.6122 4.33287 21.4001 4.42072 21.2437 4.57708L19.5771 6.24375C19.4604 6.3603 19.3809 6.50884 19.3487 6.67058C19.3165 6.83231 19.333 6.99997 19.3961 7.15233C19.4593 7.30468 19.5662 7.43487 19.7033 7.52643C19.8405 7.61799 20.0018 7.6668 20.1667 7.66667ZM20.7563 19.5771C20.5999 19.4207 20.3878 19.3329 20.1667 19.3329C19.9455 19.3329 19.7334 19.4207 19.5771 19.5771C19.4207 19.7334 19.3329 19.9455 19.3329 20.1667C19.3329 20.3878 19.4207 20.5999 19.5771 20.7563L21.2437 22.4229C21.3212 22.5003 21.4131 22.5618 21.5143 22.6037C21.6154 22.6456 21.7238 22.6671 21.8333 22.6671C21.9428 22.6671 22.0513 22.6456 22.1524 22.6037C22.2536 22.5618 22.3455 22.5003 22.4229 22.4229C22.5003 22.3455 22.5618 22.2536 22.6037 22.1524C22.6456 22.0513 22.6671 21.9428 22.6671 21.8333C22.6671 21.7238 22.6456 21.6154 22.6037 21.5143C22.5618 21.4131 22.5003 21.3212 22.4229 21.2437L20.7563 19.5771ZM5.16667 13.5C5.16667 13.279 5.07887 13.067 4.92259 12.9107C4.76631 12.7545 4.55435 12.6667 4.33333 12.6667H1.83333C1.61232 12.6667 1.40036 12.7545 1.24408 12.9107C1.0878 13.067 1 13.279 1 13.5C1 13.721 1.0878 13.933 1.24408 14.0893C1.40036 14.2455 1.61232 14.3333 1.83333 14.3333H4.33333C4.55435 14.3333 4.76631 14.2455 4.92259 14.0893C5.07887 13.933 5.16667 13.721 5.16667 13.5ZM13.5 21.8333C13.279 21.8333 13.067 21.9211 12.9107 22.0774C12.7545 22.2337 12.6667 22.4457 12.6667 22.6667V25.1667C12.6667 25.3877 12.7545 25.5996 12.9107 25.7559C13.067 25.9122 13.279 26 13.5 26C13.721 26 13.933 25.9122 14.0893 25.7559C14.2455 25.5996 14.3333 25.3877 14.3333 25.1667V22.6667C14.3333 22.4457 14.2455 22.2337 14.0893 22.0774C13.933 21.9211 13.721 21.8333 13.5 21.8333ZM25.1667 12.6667H22.6667C22.4457 12.6667 22.2337 12.7545 22.0774 12.9107C21.9211 13.067 21.8333 13.279 21.8333 13.5C21.8333 13.721 21.9211 13.933 22.0774 14.0893C22.2337 14.2455 22.4457 14.3333 22.6667 14.3333H25.1667C25.3877 14.3333 25.5996 14.2455 25.7559 14.0893C25.9122 13.933 26 13.721 26 13.5C26 13.279 25.9122 13.067 25.7559 12.9107C25.5996 12.7545 25.3877 12.6667 25.1667 12.6667Z" fill="white"/>
</g>
<defs>
<clipPath id="clip0_787_3400">
<rect width="32" height="32" fill="white"/>
</clipPath>
</defs>
</svg>
