<?xml version="1.0" encoding="UTF-8"?>
<svg id="_레이어_2" data-name="레이어 2" xmlns="http://www.w3.org/2000/svg" viewBox="0 0 141.73 141.73">
  <defs>
    <style>
      .cls-1 {
        fill: #8f9bce;
      }

      .cls-1, .cls-2, .cls-3, .cls-4, .cls-5, .cls-6 {
        stroke-width: 0px;
      }

      .cls-2 {
        fill: #f2a9a9;
      }

      .cls-3 {
        fill: #5470ad;
      }

      .cls-4 {
        fill: #223454;
      }

      .cls-5 {
        fill: #283147;
      }

      .cls-6 {
        fill: #fff;
      }
    </style>
  </defs>
  <g id="_레이어_1-2" data-name="레이어 1">
    <circle class="cls-1" cx="70.87" cy="70.87" r="70.87"/>
    <g>
      <ellipse class="cls-2" cx="39.44" cy="79.34" rx="9.17" ry="6.81"/>
      <ellipse class="cls-2" cx="100.23" cy="79.34" rx="9.17" ry="6.81"/>
      <ellipse class="cls-5" cx="50.97" cy="73.57" rx="6.03" ry="10.48"/>
      <ellipse class="cls-5" cx="89.23" cy="73.57" rx="6.03" ry="10.48"/>
      <path class="cls-3" d="M83.8,54.19c-1.17.12-1.53,1.65-.52,2.27,3.45,2.12,9.59,4.75,14.53.77,5.62-4.53-7.61-3.67-14-3.03Z"/>
      <path class="cls-3" d="M58.1,54.4c1.17.15,1.47,1.7.45,2.28-3.52,2.01-9.73,4.45-14.54.32-5.48-4.7,7.72-3.44,14.09-2.61Z"/>
      <ellipse class="cls-6" cx="49.66" cy="70.95" rx="1.05" ry="2.62"/>
      <ellipse class="cls-6" cx="86.87" cy="70.95" rx="1.05" ry="2.62"/>
    </g>
    <path class="cls-4" d="M60.96,85.78c5.03.43,16.67-.3,18.33-.53,1.05-.15,1.55,1.35.67,1.99-2.45,1.78-8.92,2-10.25,2-1.76,0-4.22-.35-5.86-.84-.6-.18-4.34-2.18-2.88-2.61Z"/>
  </g>
</svg>