<svg width="159" height="159" viewBox="0 0 159 159" fill="none" xmlns="http://www.w3.org/2000/svg">
<path d="M158.5 79.5C158.5 123.13 123.13 158.5 79.5 158.5C35.8695 158.5 0.5 123.13 0.5 79.5C0.5 35.8695 35.8695 0.5 79.5 0.5C123.13 0.5 158.5 35.8695 158.5 79.5Z" fill="#E9E9E9" stroke="#D5D5D5"/>
<path d="M79.5 84.0171C93.9692 84.0171 105.699 72.2874 105.699 57.8182C105.699 43.349 93.9692 31.6193 79.5 31.6193C65.0308 31.6193 53.3011 43.349 53.3011 57.8182C53.3011 72.2874 65.0308 84.0171 79.5 84.0171Z" fill="#D5D5D5"/>
<mask id="mask0_228_1223" style="mask-type:alpha" maskUnits="userSpaceOnUse" x="0" y="0" width="159" height="159">
<path d="M157.5 79.5C157.5 122.578 122.578 157.5 79.5 157.5C36.4218 157.5 1.5 122.578 1.5 79.5C1.5 36.4218 36.4218 1.5 79.5 1.5C122.578 1.5 157.5 36.4218 157.5 79.5Z" fill="#E9E9E9" stroke="#D5D5D5" stroke-width="3"/>
</mask>
<g mask="url(#mask0_228_1223)">
<path d="M79.5 189C111.809 189 138 167.51 138 141C138 114.49 111.809 93 79.5 93C47.1913 93 21 114.49 21 141C21 167.51 47.1913 189 79.5 189Z" fill="#D5D5D5"/>
</g>
</svg>
